<svg width="187" height="36" viewBox="0 0 187 36" fill="none" xmlns="http://www.w3.org/2000/svg">
<path d="M59.4482 9.0923C62.1213 9.0923 64.2595 9.98265 66.0415 11.8227L66.1602 11.9414L68.5362 9.6265L68.4768 9.5078C66.3385 7.13355 63.0715 5.8277 59.3295 5.8277C51.9642 5.8277 46.559 10.9324 46.559 17.9958C46.559 25.0592 51.9048 30.1637 59.27 30.1637C63.0122 30.1637 66.279 28.858 68.4768 26.4242L68.5362 26.3055L66.1602 23.9907L66.0415 24.1094C64.2595 25.9495 62.0617 26.8993 59.4482 26.8993C54.1025 26.8993 50.2417 23.1597 50.2417 17.9958C50.2417 12.8318 54.162 9.0923 59.4482 9.0923ZM78.6933 27.0772C75.1888 27.0772 72.7535 24.5249 72.7535 20.9636C72.7535 17.3428 75.1888 14.8498 78.6933 14.8498C82.1978 14.8498 84.633 17.3428 84.633 20.9636C84.633 24.5843 82.1978 27.0772 78.6933 27.0772ZM78.6933 11.7633C73.1693 11.7633 69.1895 15.6215 69.1895 20.9636C69.1895 26.3055 73.1693 30.1637 78.6933 30.1637C84.2173 30.1637 88.1967 26.3055 88.1967 20.9636C88.1967 15.6215 84.1578 11.7633 78.6933 11.7633ZM98.8885 27.0772C95.384 27.0772 92.8893 24.5249 92.8893 20.9042C92.8893 17.2835 95.3245 14.7311 98.8885 14.7311C102.393 14.7311 104.828 17.2835 104.828 20.9042C104.828 24.5249 102.393 27.0772 98.8885 27.0772ZM104.828 14.2563C103.343 12.535 101.205 11.6446 98.651 11.6446C93.1862 11.6446 89.3848 15.4434 89.3848 20.9042C89.3848 26.365 93.1862 30.1637 98.651 30.1637C101.265 30.1637 103.521 29.1548 104.947 27.374V29.9263H108.333V4.64057H104.769L104.828 14.2563ZM119.737 14.7311C122.647 14.7311 124.845 16.6899 125.261 19.539H114.272C114.629 16.6899 116.767 14.7311 119.737 14.7311ZM119.737 11.7633C114.51 11.7633 110.768 15.6215 110.768 20.9636C110.768 26.365 114.688 30.1637 120.391 30.1637C123.361 30.1637 125.796 29.1548 127.459 27.2553L127.518 27.196L125.558 24.9404L125.439 25.0592C124.192 26.4242 122.529 27.1365 120.45 27.1365C117.123 27.1365 114.688 25.2373 114.213 22.21H128.469V22.0913C128.528 21.7945 128.528 21.3791 128.528 21.0823C128.587 15.5621 124.905 11.7633 119.737 11.7633ZM144.803 24.5843C143.734 26.187 142.071 27.0772 139.992 27.0772C136.368 27.0772 133.933 24.5843 133.933 20.9636C133.933 17.3428 136.428 14.8498 139.992 14.8498C142.071 14.8498 143.734 15.6809 144.803 17.3428L144.863 17.4615L147.595 15.7402L147.535 15.6215C146.11 13.1879 143.378 11.7633 140.051 11.7633C134.468 11.7633 130.369 15.6215 130.369 20.9636C130.369 26.3055 134.468 30.1637 140.051 30.1637C143.378 30.1637 146.11 28.7393 147.535 26.2463L147.595 26.1275L144.863 24.4656L144.803 24.5843ZM158.286 27.0772C154.782 27.0772 152.346 24.5249 152.346 20.9636C152.346 17.3428 154.782 14.8498 158.286 14.8498C161.791 14.8498 164.226 17.3428 164.226 20.9636C164.226 24.5843 161.791 27.0772 158.286 27.0772ZM158.286 11.7633C152.762 11.7633 148.783 15.6215 148.783 20.9636C148.783 26.3055 152.762 30.1637 158.286 30.1637C163.81 30.1637 167.79 26.3055 167.79 20.9636C167.79 15.6215 163.751 11.7633 158.286 11.7633ZM182.758 11.7633L176.7 25.6528L170.76 11.7633H167.137L174.918 29.5107L174.977 29.5702H178.422L186.203 11.7633H182.758ZM18.8944 0C8.48145 0 0 8.3916 0 18.6294V18.7133L3.19105 20.5595H3.27502C5.29042 19.2168 7.7257 18.7133 10.1609 19.1329C11.8404 19.4685 13.436 20.2238 14.6956 21.3986L15.2834 21.9021L15.6193 21.2308C15.9552 20.5595 16.2911 19.972 16.627 19.3846C16.795 19.1329 16.9629 18.965 17.1309 18.7133L17.4668 18.2937L17.0469 17.958C15.2834 16.5315 13.184 15.5245 10.9167 15.1049C8.73338 14.6853 6.55005 14.7692 4.53465 15.4405C6.0462 8.8112 11.9244 4.1119 18.8944 4.1119C22.8412 4.1119 26.536 5.62237 29.3072 8.3916C31.3228 10.3217 32.6663 12.7552 33.254 15.4405C31.9945 15.021 30.6507 14.8532 29.3072 14.8532H29.0553C28.5515 14.8532 28.0475 14.937 27.4597 14.937H27.3757C27.2078 14.937 26.956 15.021 26.788 15.021C26.452 15.1049 26.2003 15.1049 25.8643 15.1888L25.6122 15.2727C25.3605 15.3567 25.1085 15.4405 24.8566 15.5245H24.7726C24.1848 15.6923 23.6809 15.9441 23.0931 16.1958C22.8412 16.2797 22.5892 16.4475 22.3373 16.6154H22.2533C20.9937 17.3706 19.8181 18.2937 18.8944 19.4685L18.8104 19.6364C18.5585 19.972 18.3905 20.2238 18.2225 20.3916C18.0546 20.5595 17.9706 20.8112 17.8027 21.0629L17.7187 21.2308C17.5508 21.4825 17.4668 21.7343 17.3828 21.9021V21.986C17.1309 22.4895 16.879 23.0769 16.711 23.6643V23.7482C16.2911 25.091 16.0392 26.5175 16.0392 28.028V28.1957C16.0392 28.3637 16.0392 28.6155 16.0392 28.7833C16.0392 28.8673 16.0392 28.951 16.0392 29.035C16.0392 29.119 16.0392 29.2868 16.0392 29.3708V29.4545V29.6225C16.0392 29.7902 16.1232 30.042 16.1232 30.2097C16.543 32.2237 17.4668 34.1538 18.8944 35.916L18.9783 36L19.0623 35.916C19.6501 35.2448 20.9937 33.1468 21.1617 31.888C20.4899 30.6292 20.154 29.2028 20.154 27.8603C20.154 23.1609 23.8489 19.2168 28.6355 18.965H28.9713C30.9028 18.8811 32.8342 19.4685 34.4297 20.5595H34.5137L37.7048 18.7133V18.6294C37.7048 13.6783 35.7732 8.97902 32.1625 5.45455C28.6355 1.93007 23.9328 0 18.8944 0Z" fill="black" fill-opacity="0.4"/>
</svg>
