<svg width="235" height="36" viewBox="0 0 235 36" fill="none" xmlns="http://www.w3.org/2000/svg">
<path d="M99.7615 23.0369C97.3795 23.0369 94.8418 21.3969 94.8418 17.7657C94.8418 14.1345 97.3795 12.4946 99.7615 12.4946C102.143 12.4946 104.681 14.1345 104.681 17.7657C104.681 21.3969 102.143 23.0369 99.7615 23.0369ZM108.547 17.8048C108.547 12.1041 104.291 8.7462 99.527 8.7462C94.7635 8.7462 90.898 12.4946 90.898 17.8048C90.898 22.8807 94.4512 26.59 98.9805 26.8633C99.6833 26.9025 102.768 26.8633 105.189 24.2863H105.267L108.078 26.8633H108.625V17.961C108.586 17.961 108.547 17.8048 108.547 17.8048ZM134.746 0.039048C136.152 0.039048 137.284 1.17137 137.284 2.577C137.284 3.98265 136.152 5.11497 134.746 5.11497C133.419 5.11497 132.286 3.98265 132.286 2.577C132.286 1.17137 133.38 0.039048 134.746 0.039048ZM132.95 26.8633H136.62V8.78525H132.95V26.8633ZM153.02 20.6161C152.122 22.295 150.404 23.0759 148.764 23.0759C146.382 23.0759 143.844 21.436 143.844 17.8048C143.844 14.1735 146.382 12.5336 148.764 12.5336C150.404 12.5336 152.122 13.3145 153.02 14.9544L156.417 12.9631C154.855 10.2299 152.004 8.66813 148.764 8.66813C144 8.66813 139.9 12.2213 139.9 17.7267C139.9 23.2711 143.961 26.8242 148.764 26.8242C152.004 26.8242 154.855 25.2625 156.417 22.5293L153.02 20.6161ZM80.1215 8.3948C78.7158 8.3948 77.3492 8.78525 76.256 9.44903C75.7875 9.7614 74.8503 10.4642 74.4597 11.167H74.3818C73.9912 10.4642 73.0542 9.7614 72.5857 9.44903C71.4532 8.7462 70.1258 8.3948 68.7203 8.3948C64.5033 8.3948 61.0672 11.9089 61.0672 16.2039V26.7073H64.9717V16.2039C64.9717 14.0954 66.6507 12.3384 68.7592 12.3384C70.8285 12.3384 72.5465 14.0564 72.5465 16.2039V26.7073H76.4122V16.2039C76.4122 14.0954 78.091 12.3384 80.1995 12.3384C82.269 12.3384 83.987 14.0564 83.987 16.2039V26.7073H87.8915V16.2039C87.7745 11.8698 84.3385 8.3948 80.1215 8.3948ZM172.933 26.7073C169.184 26.7073 166.178 24.3644 166.178 20.0304V3.82647H169.965V19.718C169.965 21.8265 171.137 22.8807 172.933 22.8807V26.7073ZM225.41 23.3102C223.028 23.3102 220.49 21.6703 220.49 18.039C220.49 14.4078 223.028 12.7679 225.41 12.7679C227.792 12.7679 230.33 14.4078 230.33 18.039C230.291 21.6703 227.753 23.3102 225.41 23.3102ZM234.273 18C234.273 12.4946 230.213 8.94145 225.41 8.94145C220.842 8.94145 216.898 12.1822 216.547 17.2191V35.922H220.217V24.5206C221.74 26.7463 224.707 27.0195 225.683 27.0585H226.035H225.996C230.173 26.9805 234.273 23.5445 234.273 18ZM204.326 23.2712C201.943 23.2712 199.406 21.6312 199.406 18C199.406 14.3688 201.943 12.7289 204.326 12.7289C206.707 12.7289 209.245 14.3688 209.245 18C209.206 21.6703 206.668 23.2712 204.326 23.2712ZM213.072 18C213.072 12.2993 208.816 8.94145 204.052 8.94145C199.288 8.94145 195.423 12.6898 195.423 18C195.423 23.154 199.054 26.8243 203.622 27.0585H203.974C204.52 27.0585 205.419 26.9805 206.473 26.59C206.746 26.512 206.98 26.3558 207.254 26.2385C207.996 25.8483 208.777 25.3015 209.479 24.5206H209.557L212.525 27.0195H213.072V18ZM183.904 12.6117C186.286 12.6117 188.004 14.0174 188.707 15.9306H179.18C179.883 13.9393 181.601 12.6117 183.904 12.6117ZM188.043 21.1236C187.145 22.4121 185.661 23.1931 183.904 23.1931C181.21 23.1931 179.375 21.475 178.907 19.2104H192.729C192.768 18.82 192.807 18.3904 192.807 18C192.807 13.0022 188.824 8.9024 183.904 8.9024C178.985 8.9024 175.002 13.0022 175.002 18C175.002 22.9978 178.985 27.0975 183.904 27.0975C187.184 27.0975 189.996 25.3015 191.557 22.6464L188.043 21.1236ZM120.299 23.0759C117.917 23.0759 115.38 21.436 115.38 17.8048C115.38 14.1735 117.917 12.5336 120.299 12.5336C122.681 12.5336 125.258 14.1735 125.258 17.8048C125.297 21.475 122.72 23.0759 120.299 23.0759ZM129.163 17.7657C129.163 12.2603 125.063 8.78525 120.299 8.78525C115.536 8.78525 111.436 12.3384 111.436 17.8438C111.436 23.3883 115.536 26.9415 120.026 26.9415H120.534C122.017 26.7852 123.462 26.1995 124.594 25.1845L124.828 24.9501C125.102 24.6378 125.297 24.2473 125.375 23.8959V26.629C125.375 26.629 125.453 28.6595 124.126 30.2213C123.189 31.3927 121.705 31.9783 120.338 31.9783C118.581 31.9783 116.668 31.0413 115.848 29.089L112.217 30.6117C113.623 33.8525 116.746 35.8047 120.26 35.8047C125.063 35.8047 129.124 32.2518 129.124 26.7463L129.163 17.7657ZM42.3252 13.3926C40.334 5.70065 33.462 0 25.3015 0C17.141 0 10.269 5.70065 8.27765 13.3926C4.21692 16.9848 1.32755 21.7093 0 26.9415C2.88937 25.9263 5.85682 25.1063 8.90238 24.5597C11.4794 31.2755 17.8438 36 25.3015 36C32.7982 36 39.1628 31.2755 41.7007 24.5597C44.9805 25.1845 47.948 25.9653 50.603 26.9415C49.2755 21.7093 46.386 16.9848 42.3252 13.3926ZM19.8742 13.0802C19.0933 15.6182 16.7896 17.1019 14.7592 16.4382C12.6898 15.7744 11.6746 13.2365 12.4165 10.6985C13.1583 8.16052 15.5011 6.6768 17.5315 7.34058C19.5618 7.9653 20.616 10.5814 19.8742 13.0802ZM35.7658 16.4382C33.6963 17.1019 31.4317 15.5792 30.6507 13.0802C29.8697 10.5423 30.924 8.00435 32.9935 7.34058C35.063 6.6768 37.3275 8.19957 38.1085 10.6985C38.9285 13.2365 37.8743 15.7744 35.7658 16.4382Z" fill="black" fill-opacity="0.4"/>
</svg>
