<?xml version="1.0" encoding="utf-8"?>
<!-- Generator: Adobe Illustrator 27.5.0, SVG Export Plug-In . SVG Version: 6.00 Build 0)  -->
<svg version="1.1" xmlns="http://www.w3.org/2000/svg" xmlns:xlink="http://www.w3.org/1999/xlink" x="0px" y="0px"
	 viewBox="0 0 3710 3710" style="enable-background:new 0 0 3710 3710;" xml:space="preserve">
<g id="Background">
	<g>
		<g>
			<rect style="fill:#FFFFFF;" width="3710" height="3710"/>
		</g>
	</g>
</g>
<g id="Illustration">
	<g>
		<path style="fill:#F4F7FA;" d="M712.425,980.584c43.236-59.181,413.383-548.58,1013.373-524.742
			c29.981,1.191,615.133,32.094,830.963,415.724c159.656,283.781-9.373,535.566,185.396,728.914
			c169.708,168.471,378.274,56.96,482.564,193.193c158.862,207.522-94.129,767.986-482.834,1080.552
			c-401.362,322.745-1169.216,559.523-1766.021,128.919C305.823,2519.699,312.622,1527.819,712.425,980.584z"/>
		<g>
			<g>
				<g>
					<g>
						<defs>
							<path id="SVGID_1_" d="M2439.476,2499.186c-16.885,3.386-56.653-3.896-66.224-10.001
								c-63.695-40.624-187.97-109.06-209.428-185.145c-3.665-12.995,50.073-44.29,54.115-58.71
								c29.34-28.136,41.291-36.106,55.831-76.34c42.924-118.778-189.967-236.291-11.35-365.272
								c130.834-94.476,271.861-86.458,178.294-305.004s-54.965-687.172,239.506-611.871
								c168.998,43.215,95.223,280.676,214.955,397.211c113.776,110.739,94.478,239.929-21.727,368.484
								c-116.205,128.555-17.865,164.214,68.066,276.92c103.222,135.384-125.486,242.51-235.362,283.104
								C2617.672,2245.25,2414.781,2387.231,2439.476,2499.186z"/>
						</defs>
						
							<linearGradient id="SVGID_00000137115236948729278230000016425192255605456014_" gradientUnits="userSpaceOnUse" x1="2424.5623" y1="953.1963" x2="2888.6194" y2="3919.8547">
							<stop  offset="0.0036" style="stop-color:#E38DDD"/>
							<stop  offset="1" style="stop-color:#9571F6"/>
						</linearGradient>
						
							<use xlink:href="#SVGID_1_"  style="overflow:visible;fill:url(#SVGID_00000137115236948729278230000016425192255605456014_);"/>
						<clipPath id="SVGID_00000130627365844351960210000005105237954452283829_">
							<use xlink:href="#SVGID_1_"  style="overflow:visible;"/>
						</clipPath>
						<g style="clip-path:url(#SVGID_00000130627365844351960210000005105237954452283829_);">
							<g>
								<path style="fill:#FCFDFE;" d="M2272.793,2402.358l-2.584-2.556c400.057-391.823,520.531-974.761,322.268-1559.358
									l3.477-1.144c93.961,277.058,116.873,564.736,66.256,831.934C2608.998,1952.144,2474.339,2204.961,2272.793,2402.358z"/>
								<path style="fill:#FCFDFE;" d="M2990.977,1980.885c-154.368,1.904-386.938,78.82-518.435,171.461l-2.132-2.932
									c132.014-93.004,365.518-170.222,520.52-172.135L2990.977,1980.885z"/>
								<path style="fill:#FCFDFE;" d="M2350.431,2324.557l-3.203-1.753c40.814-72.319,42.907-162.165,6.222-267.04
									c-26.899-76.9-73.634-159.939-138.91-246.817l2.948-2.143c65.496,87.172,112.408,170.539,139.427,247.785
									C2393.954,2160.473,2391.772,2251.303,2350.431,2324.557z"/>
								<path style="fill:#FCFDFE;" d="M2667.897,1633.034l-3.291-1.587c69.807-140.211,215.382-220.431,325.213-263.04l1.344,3.357
									C2881.935,1414.138,2737.186,1493.861,2667.897,1633.034z"/>
								<path style="fill:#FCFDFE;" d="M2685.19,1276.023l-3.545,0.917c-45.467-170.109-193.365-283.716-277.477-336.294
									l1.964-3.046C2490.699,990.464,2639.405,1104.722,2685.19,1276.023z"/>
							</g>
						</g>
					</g>
				</g>
			</g>
			<g>
				<g>
					<g>
						<defs>
							<path id="SVGID_00000016047698595468958290000009788608871007032457_" d="M2358.752,2470.073
								c-16.961-2.997-51.175-24.232-57.774-33.387c-43.919-60.92-133.677-169.722-125.028-248.224
								c1.477-13.407,63.165-22.933,72.338-34.861c37.832-15.468,51.931-18.525,80.556-50.617
								c84.509-94.744-87.729-288.665,126.689-343.519c157.059-40.18,285.08,18.581,280.253-218.522
								c-4.828-237.103,207.105-658.478,452.418-481.375c140.787,101.641-16.976,295.433,50.49,447.274
								c64.109,144.288-2.359,257.303-158.629,334.469c-156.269,77.166-78.296,146.078-40.798,282.063
								c45.044,163.347-207.707,179.67-325.048,177.41C2619.726,2298.965,2377.869,2357.067,2358.752,2470.073z"/>
						</defs>
						<use xlink:href="#SVGID_00000016047698595468958290000009788608871007032457_"  style="overflow:visible;fill:#FE8794;"/>
						<clipPath id="SVGID_00000168104494630366166490000003458916350105780125_">
							<use xlink:href="#SVGID_00000016047698595468958290000009788608871007032457_"  style="overflow:visible;"/>
						</clipPath>
						<g style="clip-path:url(#SVGID_00000168104494630366166490000003458916350105780125_);">
							<g>
								<path style="fill:#FCFDFE;" d="M2240.259,2319.461l-1.44-3.315c518.919-218.504,849.87-716.304,885.293-1331.612l3.66,0.203
									c-16.789,291.613-103.583,567.243-251.002,797.091C2721.789,2023.472,2501.686,2209.381,2240.259,2319.461z"/>
								<path style="fill:#FCFDFE;" d="M3065.904,2189.155c-144.146-54.395-389.134-67.547-546.119-29.314l-0.879-3.5
									c157.602-38.382,403.571-25.172,548.309,29.446L3065.904,2189.155z"/>
								<path style="fill:#FCFDFE;" d="M2341.625,2275.421l-2.317-2.794c65.092-52.345,100.793-135.063,106.109-245.855
									c3.899-81.238-8.326-175.397-36.336-279.868l3.544-0.919c28.104,104.825,40.37,199.353,36.453,280.955
									C2443.711,2138.799,2407.559,2222.399,2341.625,2275.421z"/>
								<path style="fill:#FCFDFE;" d="M2896.406,1748.404l-2.462-2.672c117.539-104.878,282.938-126.448,400.995-126.077
									l-0.012,3.608C3177.518,1622.892,3013.073,1644.302,2896.406,1748.404z"/>
								<path style="fill:#FCFDFE;" d="M3046.605,1422.981l-3.638-0.438c21.666-174.598-73.07-333.965-131.468-413.421l2.969-2.115
									C2973.182,1086.894,3068.423,1247.16,3046.605,1422.981z"/>
							</g>
						</g>
					</g>
				</g>
			</g>
		</g>
		<g>
			<g>
				<g>
					<g>
						<defs>
							<path id="SVGID_00000181787732019337819440000016714468716387163793_" d="M1121.503,2635.111
								c11.668-1.263,36.02-14.151,40.989-20.082c33.064-39.465,99.796-109.43,98.138-163.28
								c-0.283-9.197-41.626-18.515-47.211-27.058c-24.839-12.269-34.241-14.998-51.942-38.164
								c-52.257-68.392,75-192.529-67.538-239.722c-104.407-34.568-194.417-0.433-178.429-161.659
								c15.988-161.225-105.211-457.873-281.147-348.541c-100.971,62.746-4.322,201.944-58.237,302.237
								c-51.233,95.305-12.195,175.309,89.694,235.026c101.888,59.717,45.29,103.06,12.557,193.933
								c-39.319,109.157,131.291,131.874,211.026,135.721C953.612,2506.621,1114.592,2557.286,1121.503,2635.111z"/>
						</defs>
						
							<linearGradient id="SVGID_00000148628794750595083320000001473393326231075972_" gradientUnits="userSpaceOnUse" x1="811.1708" y1="1627.2341" x2="1127.7982" y2="3651.3936">
							<stop  offset="0.0036" style="stop-color:#E38DDD"/>
							<stop  offset="1" style="stop-color:#9571F6"/>
						</linearGradient>
						
							<use xlink:href="#SVGID_00000181787732019337819440000016714468716387163793_"  style="overflow:visible;fill:url(#SVGID_00000148628794750595083320000001473393326231075972_);"/>
						<clipPath id="SVGID_00000111181331449687372800000007385858444562529185_">
							<use xlink:href="#SVGID_00000181787732019337819440000016714468716387163793_"  style="overflow:visible;"/>
						</clipPath>
						<g style="clip-path:url(#SVGID_00000111181331449687372800000007385858444562529185_);">
							<g>
								<path style="fill:#FCFDFE;" d="M1209.974,2537.996l1.155-2.191c-340.361-172.602-538.214-526.751-529.256-947.349
									l-2.494-0.03c-4.244,199.333,39.866,390.998,127.562,554.271C899.136,2314.35,1038.503,2451.041,1209.974,2537.996z"/>
								<path style="fill:#FCFDFE;" d="M656.778,2411.37c100.716-30.422,267.641-28.132,372.102,5.108l0.784-2.343
									c-104.872-33.369-272.465-35.665-373.595-5.118L656.778,2411.37z"/>
								<path style="fill:#FCFDFE;" d="M1143.56,2503.355l1.722-1.796c-41.357-38.63-61.144-96.593-58.811-172.276
									c1.71-55.495,15.053-119.048,39.659-188.898l-2.356-0.788c-24.689,70.087-38.079,133.889-39.797,189.633
									C1081.622,2405.641,1101.668,2464.225,1143.56,2503.355z"/>
								<path style="fill:#FCFDFE;" d="M795.41,2119.037l1.814-1.706c-74.124-76.808-185.188-99.088-265.307-104.254l-0.185,2.458
									C611.411,2020.671,721.835,2042.797,795.41,2119.037z"/>
								<path style="fill:#FCFDFE;" d="M710.951,1890.558l2.492-0.131c-5.339-119.881,67.482-224.047,111.364-275.469l-1.901-1.576
									C778.787,1665.082,705.575,1769.838,710.951,1890.558z"/>
							</g>
						</g>
					</g>
				</g>
			</g>
			<g>
				<g>
					<g>
						<defs>
							<path id="SVGID_00000061439366296588398760000011807018980666407568_" d="M1316.12,2742.274
								c10.408-5.427,28.289-26.245,30.7-33.548c16.049-48.6,52.069-137.72,30.349-186.965c-3.71-8.41-45.755-1.95-54.163-7.82
								c-27.759-2.294-37.55-1.389-62.735-16.375c-74.354-44.243-2.186-205.599-152.79-197.274
								c-110.315,6.098-181.466,70.543-226.956-84.542c-45.49-155.086-269.648-385.477-392.757-220.063
								c-70.653,94.932,71.623,188.524,58.918,301.043c-12.073,106.922,54.304,166.74,171.692,184.842
								c117.387,18.102,80.844,78.88,84.363,174.948c4.227,115.399,171.84,74.171,247.638,48.636
								C1111.417,2684.593,1280.519,2672.751,1316.12,2742.274z"/>
						</defs>
						
							<linearGradient id="SVGID_00000157284817424883362190000012483621019429394358_" gradientUnits="userSpaceOnUse" x1="467.9836" y1="2340.3638" x2="1383.9481" y2="2340.3638">
							<stop  offset="0" style="stop-color:#FFC444"/>
							<stop  offset="0.0985" style="stop-color:#FEBC46"/>
							<stop  offset="0.9964" style="stop-color:#F36F56"/>
						</linearGradient>
						
							<use xlink:href="#SVGID_00000061439366296588398760000011807018980666407568_"  style="overflow:visible;fill:url(#SVGID_00000157284817424883362190000012483621019429394358_);"/>
						<clipPath id="SVGID_00000008853355563128605200000016124862469556382143_">
							<use xlink:href="#SVGID_00000061439366296588398760000011807018980666407568_"  style="overflow:visible;"/>
						</clipPath>
						<g style="clip-path:url(#SVGID_00000008853355563128605200000016124862469556382143_);">
							<g>
								<path style="fill:#FCFDFE;" d="M1362.24,2620.088l0.256-2.45c-382.065-35.582-699.248-291.232-848.464-683.863l-2.337,0.882
									c70.718,186.079,183.657,347.413,326.605,466.56C988.584,2526.479,1169.76,2602.162,1362.24,2620.088z"/>
								<path style="fill:#FCFDFE;" d="M798.92,2704.733c82.526-64.915,239.049-123.708,348.916-131.056l-0.146-2.455
									c-110.299,7.378-267.448,66.41-350.313,131.591L798.92,2704.733z"/>
								<path style="fill:#FCFDFE;" d="M1287.329,2612.255l0.933-2.291c-53.039-20.67-93.207-67.107-119.384-138.021
									c-19.195-51.997-30.561-115.7-33.783-189.342l-2.492,0.13c3.233,73.891,14.649,137.841,33.93,190.072
									C1192.962,2544.399,1233.604,2591.318,1287.329,2612.255z"/>
								<path style="fill:#FCFDFE;" d="M818.684,2383.521l1.052-2.242c-97.899-44.055-209.818-24.152-286.468,0.302l0.748,2.343
									C610.246,2359.604,721.511,2339.792,818.684,2383.521z"/>
								<path style="fill:#FCFDFE;" d="M654.327,2202.831l2.275-1.031c-49.89-109.03-21.005-232.033,0.653-295.65l-2.364-0.766
									C633.117,1969.345,604.088,2093.037,654.327,2202.831z"/>
							</g>
						</g>
					</g>
				</g>
			</g>
		</g>
		<g>
			<path style="fill:#97A6B7;" d="M2820.751,1546.764L2820.751,1546.764l-0.333-49.861c-0.107-16.156-13.541-29.602-29.806-30.062
				l-1477.54-41.204l-483-13.468l-10.533-0.297c-19.892-0.566-35.482,13.516-35.482,31.44v36.065v19.212v1256.981
				c0,5.226,0.787,10,3.238,14.291c0,0.03,0.079-0.086,0.079-0.056c5.933,10.486,17.568,18.619,31.729,18.076l7.112,0.735h0.083
				l1146.881-43.926l0.151-0.738l825.358-33.01c16.324-0.611,29.725-15.097,29.616-31.38L2820.751,1546.764z"/>
			<g>
				<g>
					<path style="fill:#FFFFFF;" d="M2839.542,1529.464l7.744,1150.512c0.11,16.291-13.307,29.996-29.646,30.609l-842.976,32.701
						l-1138.349,44.193c-3.486,0.145-6.166-0.163-9.366-0.878c-15.138-3.34-25.578-15.465-25.578-30.427l-0.071-1276.766l0.696,0.03
						l566.627,13.914l1452.517,35.65L2839.542,1529.464z"/>
					
						<linearGradient id="SVGID_00000183969072439595089740000002657607906966658465_" gradientUnits="userSpaceOnUse" x1="1969.6818" y1="1246.8879" x2="1154.5908" y2="2579.3853">
						<stop  offset="0" style="stop-color:#AA80F9"/>
						<stop  offset="0.9964" style="stop-color:#6165D7"/>
					</linearGradient>
					<path style="fill:url(#SVGID_00000183969072439595089740000002657607906966658465_);" d="M2839.323,1496.943l0.336,49.884
						l-19.225-0.441l-1441.697-34.105l-577.436-13.652l-0.003-55.301c-0.001-15.997,12.202-28.953,29.122-31.159
						c2.048-0.237,3.805-0.356,5.939-0.297l476.128,13.281l1496.998,41.714C2825.767,1467.328,2839.215,1480.779,2839.323,1496.943z
						"/>
				</g>
			</g>
			<path style="opacity:0.5;fill:#FFFFFF;" d="M1991.553,2743.281l-1138.269,44.196c-3.486,0.145-6.831-0.187-10.03-0.902
				l-7.085,0.287c-14.16,0.542-25.772-6.335-31.703-16.821c0-0.031-0.028-0.032-0.028-0.061l-3.136-55.579V1443.314
				c0-17.925,15.502-32.007,35.394-31.441l10.41,0.297c0.54-0.058,1.081-0.118,1.593-0.148c0.397-0.029,0.796-0.06,1.195-0.089
				c1.081-0.06,2.191-0.09,3.329-0.06l476.214,13.281c0.205,0.121,0.381,0.302,0.556,0.484
				c21.222,17.948,39.994,40.238,55.312,67.714c0.089,0.121,0.264,0.243,0.353,0.395c3.288,5.935,6.608,12.082,9.548,18.503l0,0.03
				c0,0.121-0.029,0.242,0.03,0.394c9.471,20.573,17.091,43.755,22.654,69.726c39.013,181.954,71.46,262.946,118.385,304.886
				c0.296,0.277,0.603,0.556,0.899,0.802c5.416,4.786,10.999,9.056,16.831,12.843c0.296,0.187,0.588,0.404,0.913,0.591
				c4.589,3.011,9.324,5.751,14.24,8.282c0.178,0.063,0.324,0.157,0.502,0.25c5.746,2.938,11.701,5.605,17.924,8.003
				c0.029,0.03,0.058,0.031,0.088,0.061c0.059,0.032,0.119,0.033,0.178,0.065c0.148,0.062,0.295,0.124,0.444,0.187
				c6.936,2.713,14.201,5.156,21.794,7.451c0.178,0.064,0.385,0.127,0.563,0.191c8.813,2.648,18.074,5.089,27.844,7.479
				c0.03,0,0.089,0.337,0.12,0.337c6.625,1.646,13.457,2.012,20.598,5.162c0.029,0,0.029,0,0.059,0.001
				c0.922,0.012,1.842,0.178,2.764,0.343c0.031,0.03,0.09-0.122,0.119-0.121c5.801,1.363,11.752,2.65,17.883,4.016
				c0.029,0.03,0.059-0.008,0.089-0.007c5.181,1.172,10.482,2.386,15.933,3.653c0.447,0.097,0.893,0.216,1.37,0.314
				c5.364,1.266,10.879,2.56,16.515,3.953c0.06,0.001,0.119,0.031,0.179,0.031c0.387,0.096,0.805,0.192,1.193,0.29
				c10.92,2.72,21.548,6.143,31.857,10.234c0.33,0.127,0.658,0.254,0.987,0.413c5.77,2.255,11.422,4.754,16.958,7.466
				c0.33,0.157,0.659,0.316,0.988,0.505c6.136,2.967,12.125,6.208,17.969,9.694c0.24,0.158,0.509,0.284,0.749,0.44
				c3.026,1.76,5.995,3.612,8.934,5.556c12.089,7.843,23.562,16.665,34.324,26.4l0.029,0.032c0.901,0.781,1.774,1.562,2.677,2.434
				l0.029,0.032c31.852,29.394,57.442,66.454,74.865,108.284c0.092,0.155,0.152,0.279,0.182,0.433
				c3.402,8.155,6.474,16.459,9.246,24.946c0.03,0.154,0.093,0.34,0.152,0.494c25.588,79.385,22.766,172.385-20.083,261.141
				c-53.466,110.768-1.196,239.01,95.032,332.066C1990.671,2742.447,1991.097,2742.863,1991.553,2743.281z"/>
			<g>
				<g>
					<g>
						<path style="fill:#97A6B7;" d="M1534.091,1746.739c-12.984,6.777-25.513,22.463-22.611,40.478
							c2.943,18.269,20.39,30.447,34.087,34.708c19.186,5.97,25.455-5.342,45.964-2.86c30.857,3.734,54.794,34.055,64.777,56.106
							c9.792,21.626,2.22,26.604,8.578,51.352c11.146,43.392,45.217,70.299,77.433,95.741c26.649,21.046,66.954,46.364,74.12,38.951
							c2.562-2.651,0.226-8.764-1.184-12.453c-5.599-14.649-18.305-18.1-35.719-31.957c-12.428-9.889-28.165-22.413-25.648-32.219
							c2.477-9.654,22.306-15.347,37.043-10.883c14.708,4.456,22.628,18.515,26.439,25.28c3.255,5.778,2.744,13.226,5.743,13.622
							c2.068,0.273,4.356-2.729,5.384-5.319c2.643-6.663-2.04-13.183-3.757-18.392c-3.957-12.002,5.272-24.736,14.431-37.374
							c15.273-21.074,24.234-21.031,47.703-45.246c15.621-16.117,23.415-24.386,24.226-36.386
							c1.391-20.568-16.336-36.613-19.315-39.309c-14.398-13.031-38.886-22.586-49.312-14.016
							c-9.377,7.708,0.577,23.517-10.442,34.857c-7.723,7.948-21.287,9.146-31.91,5.626c-15.05-4.988-23.763-19.299-24.675-31.99
							c-0.18-2.503-1.011-14.074,6.861-21.693c2.241-2.169,7.691-6.44,26.011-6.373c25.604,0.095,30.95,8.546,46.13,5.876
							c12.612-2.218,27.746-11.369,27.528-21.073c-0.255-11.363-21.36-13.576-45.792-40.534
							c-9.547-10.534-17.329-19.357-16.749-30.284c0.816-15.377,17.721-26.476,21.068-28.673
							c13.097-8.598,24.687-15.501,24.687-15.501c3.257-1.94,7.981-4.711,7.427-7.673c-0.365-1.949-2.915-3.442-7.472-5.009
							c-14.427-4.96-25.504-3.342-25.504-3.342c-17.25,2.519-22.737,10.421-43.962,20.216c-8.605,3.972-23.164,10.691-43.13,13.788
							c-22.902,3.553-30.823-1.067-42.243,6.432c-11.048,7.255-7.533,14.11-18.909,25.715c-11.95,12.191-26.636,15.676-49.577,21.12
							c-8.824,2.093-26.711,5.775-51.307,6.568C1555.206,1745.758,1547.687,1739.642,1534.091,1746.739z"/>
					</g>
					<g>
						<path style="fill:#97A6B7;" d="M1908.882,1666.902c-23.04,4.484-43.187,8.404-47.35,22.034
							c-2.167,7.092-0.094,17.136,6.054,22.77c12.197,11.179,30.42-4.165,43.686,5.67c7.076,5.246,4.429,11.5,12.631,47.295
							c5.464,23.843,9.915,35.353,18.392,45.885c4.797,5.96,11.516,14.308,18.152,13.293c9.807-1.499,6.017-21.445,21.429-34.905
							c5.394-4.711,6.389-2.719,31.974-13.684c14.85-6.365,22.277-9.593,23.9-12.5c8.285-14.84-14-34.723-5.128-52.394
							c1.671-3.328,1.91-1.512,13.252-15.031c12.992-15.485,12.818-18.048,12.472-19.325c-1.47-5.423-11.182-6.51-36.467-11.282
							c-42.345-7.991-45.806-10.715-58.474-8.632c-8.43,1.386-10.673,3.209-28.941,6.718
							C1920.141,1665.567,1918.533,1665.024,1908.882,1666.902z"/>
					</g>
					<g>
						<path style="fill:#97A6B7;" d="M1851.596,2061.199c-12.92,9.395-15.444,25.73-16.468,32.353
							c-2.534,16.396,2.355,27.083,11.504,53.995c11.088,32.619,16.617,48.884,17.471,58.139
							c1.325,14.362-1.321,16.937-11.744,73.895c-7.773,42.477-8.583,53.491-1.292,60.918c10.699,10.899,33.523,8.67,34.422,5.74
							c0.438-1.426-4.481-2.439-8.213-7.058c-8.322-10.3-2.417-28.169-0.863-32.874c6.128-18.544,17.906-26.774,36.864-45.471
							c22.253-21.947,36.676-36.172,47.188-56.947c5.213-10.304,16.299-32.95,12.742-62.019
							c-0.717-5.859-3.699-25.643-18.218-45.383c-18.926-25.731-44.507-33.805-52.024-36.056
							C1888.294,2056.038,1867.33,2049.758,1851.596,2061.199z"/>
					</g>
					<g>
						<path style="fill:#97A6B7;" d="M2065.795,1960.883c-7.887,15.346-16.63,32.357-20.025,48.112
							c-3.042,14.116-5.873,46.19,10.027,58.613c14.33,11.197,30.674-3.968,50.491,8.507c10.07,6.339,14.529,15.727,19.902,27.043
							c11.527,24.273,6.144,37.782,11.159,68.986c2.355,14.655,9.83,61.161,27.906,63.906c15.009,2.279,31.133-26.61,33.819-31.422
							c7.125-12.765,9.827-25.921,14.932-51.671c6.871-34.656,4.234-39.471,11.58-49.229c9.431-12.528,20.885-14.01,23.337-25.989
							c1.801-8.796-2.633-16.718-5.298-21.604c-9.862-18.08-23.525-16.159-32.86-33.7c-5.376-10.103-6.875-22.076-4.718-23.206
							c1.927-1.01,7.308,6.355,9.916,9.924c7.998,10.947,7.045,14.876,11.891,20.394c9.779,11.135,26.137,9.35,27.361,9.197
							c7.475-0.931,20.881-5.346,22.478-14.462c1.229-7.016-4.924-14.581-12.33-23.688c-5.987-7.362-10.46-10.55-9.741-11.932
							c0.729-1.4,6.033,0.504,20.001,5.812c15.104,5.74,22.623,8.597,23.685,9.259c5.062,3.156,9.376,7.39,23.589,32.524
							c14.347,25.37,19.571,38.08,22.78,37.025c1.596-0.525,1.302-3.996,2.418-15.728c1.668-17.54,2.586-26.434,6.689-32.759
							c3.457-5.33,10.861-12.519,18.546-11.436c4.603,0.649,10.158,8.42,21.048,23.887c10.7,15.197,14.301,20.352,21.49,24.369
							c3.767,2.104,10.506,5.869,15.767,2.68c5.831-3.535,7.778-14.363,5.31-22.169c-2.988-9.452-11.164-10.407-10.958-16.187
							c0.294-8.242,17.149-13.513,18.616-13.957c10.825-3.278,13.615,0.569,19.132-3.161c8.175-5.527,11.467-20.361,9.344-31.895
							c-2.187-11.883-9.408-16.382-7.254-21.47c1.811-4.277,7.575-2.646,18.951-5.59c8.422-2.18,20.82-5.388,27.529-15.92
							c3.988-6.26,4.659-13.053,5.703-23.616c0.174-1.757,0.925-9.879-0.12-21.12c-1.447-15.569-4.447-16.76-3.036-21.229
							c3.093-9.799,18.241-6.462,46.733-14.543c16.193-4.593,27.823-10.367,28.977-7.884c1.447,3.113-17.397,11.098-18.581,27.24
							c-0.897,12.235,8.677,24.95,12.651,23.912c3.281-0.856,0.851-10.587,6.653-24.478c2.133-5.109,5.368-12.852,12.307-17.679
							c8.307-5.778,13.244-1.326,20.686-7.52c5.942-4.946,4.413-9.142,9.378-14.403c11.226-11.893,30.237-2.319,31.425-6.846
							c1.097-4.182-13.585-18.225-32.712-22.199c-17.1-3.553-19.688,4.661-39.206,3.772c-11.135-0.507-24.703-6.233-52.064-17.781
							c-15.551-6.563-23.687-10.924-37.87-12.65c-9.909-1.206-10.198,0.4-20.601-1.171c-11.84-1.788-26.566-4.011-38.189-15.549
							c-9.145-9.078-6.392-14.005-13.942-19.609c-12.223-9.072-28.929-3.223-43.185,2.004c-15.208,5.577-26.027,12.843-44.441,25.21
							c-21.539,14.466-28.771,21.867-40.822,19.697c-9.03-1.626-10.905-6.839-21.063-7.325c-8.241-0.394-10.813,2.845-27.612,9.629
							c-16.322,6.591-24.669,9.867-31.843,8.14c-11.142-2.681-11.61-10.933-23.75-16.627c-12.993-6.093-25.391-2.729-40.598,1.398
							c-18.87,5.12-37.534,10.185-46.576,26.839c-9.604,17.689-0.555,34.029-11.452,41.68c-9.067,6.365-18.443-2.704-26.864,3.995
							c-10.145,8.071-7.023,29.525-5.376,40.839c3.242,22.278,11.081,27.935,8.501,43.406
							C2074.27,1946.333,2072.201,1948.419,2065.795,1960.883z"/>
					</g>
					<g>
						<path style="fill:#97A6B7;" d="M2249.247,2145.351c-4.576-0.432-12.15,19.318-10.222,37.901
							c0.115,1.105,1.695,15.511,5.933,15.914c3.934,0.374,7.966-11.532,8.377-12.771c0.676-2.037,2.702-8.681,1.849-19.551
							C2254.945,2163.804,2253.529,2145.755,2249.247,2145.351z"/>
					</g>
					<g>
						<path style="fill:#97A6B7;" d="M2409.371,2098.766c-0.317,0.842,0.93,2.265,4.396,5.272c9.139,7.93,13.697,11.885,21.18,14.69
							c6.45,2.418,22.434,6.75,25.814,0.36c2.165-4.094-1.022-12.229-6.066-15.996c-5.383-4.02-9.4-0.469-22.253-1.147
							C2419.073,2101.24,2410.146,2096.707,2409.371,2098.766z"/>
					</g>
					<g>
						<path style="fill:#97A6B7;" d="M2454.479,2063.598c-2.642,0.47-1.936,6.263-7.091,18.776
							c-2.408,5.846-3.724,7.404-2.952,9.405c1.702,4.411,11.804,6.469,16.779,1.226c4.637-4.888,2.463-13.642,1.698-16.719
							C2461.467,2070.463,2457.57,2063.048,2454.479,2063.598z"/>
					</g>
					<g>
						<path style="fill:#97A6B7;" d="M2508.043,2111.891c1.98,3.188,5.332,7.122,13.502,11.086
							c2.846,1.381,23.798,11.544,28.988,3.563c2.112-3.247,1.037-8.592-0.644-11.815c-2.603-4.991-7.317-6.154-15.072-8.393
							c-23.2-6.699-28.482-9.998-30.363-6.997C2502.34,2102.709,2506.961,2110.149,2508.043,2111.891z"/>
					</g>
					<g>
						<path style="fill:#97A6B7;" d="M2468.078,2040.224c-2.805,0.96-2.547,15.3,2.527,26.693c2.636,5.92,7.411,12.926,9.563,11.971
							c2.326-1.032,1.085-11.139-0.692-17.979C2476.833,2050.738,2470.793,2039.295,2468.078,2040.224z"/>
					</g>
					<g>
						<path style="fill:#97A6B7;" d="M2490.219,1973.221c0.026-3.339,7.412-2.404,16.992-8.972
							c6.64-4.552,16.331-14.077,21.419-27.259c1.031-2.669,2.087-6.046,2.867-5.854c1.176,0.29,1.369,8.615,0.09,15.801
							c-2.364,13.286-10.188,25.101-20.205,30.614c-3.937,2.167-6.886,2.63-9.359,2.497
							C2496.521,1979.751,2490.195,1976.317,2490.219,1973.221z"/>
					</g>
					<g>
						<path style="fill:#97A6B7;" d="M2471.164,2168.361c-12.962,12.881-20.11,10.738-22.01,17.922
							c-2.154,8.145,6.841,11.583,8.542,27.909c1.056,10.145-1.671,15.961,0.693,17.391c3.581,2.165,9.39-11.456,23.126-16.799
							c1.063-0.414,15.393-5.74,27.119,1.801c6.793,4.368,5.966,8.722,17.049,19.278c7.075,6.739,10.744,10.132,15.144,9.338
							c7.242-1.307,11.263-13.033,13.731-20.229c2.042-5.953,6.715-19.581,3.244-35.552c-1.504-6.92-2.574-5.257-22.719-36.966
							c-5.588-8.797-7.836-12.591-12.871-14.951c-10.301-4.83-21.562,1.354-23.404,2.366c-4.043,2.22-7.582,5.994-14.674,13.557
							C2475.734,2162.383,2476.266,2163.291,2471.164,2168.361z"/>
					</g>
				</g>
				<g>
					<g>
						<g>
							<path style="fill:#97A6B7;" d="M1144.401,2031.056c-105.408-0.512-192.086-79.818-192.139-176.725
								c-0.053-96.846,86.44-173.562,191.729-171.094c104.119,2.44,188.113,81.57,188.283,176.473
								C1332.445,1954.671,1248.636,2031.563,1144.401,2031.056z M1144.003,1693.163c-99.244-2.273-180.721,70.064-180.667,161.324
								c0.053,91.315,81.704,166.084,181.054,166.62c98.306,0.53,177.397-71.964,177.239-161.549
								C1321.472,1770.026,1242.207,1695.413,1144.003,1693.163z"/>
						</g>
					</g>
					<g>
						<g>
							<path style="fill:#97A6B7;" d="M1144.401,2030.599c-39.081-0.191-69.882-76.883-69.975-174.539
								c-0.093-97.594,30.529-173.282,69.567-172.368c38.875,0.91,69.323,77.463,69.459,174.335
								C1213.587,1954.962,1183.319,2030.79,1144.401,2030.599z M1144.004,1693.619c-28.355-0.649-58.744,64.509-58.647,162.596
								c0.097,98.15,30.648,164.282,59.032,164.436c28.299,0.153,58.413-65.239,58.279-162.776
								C1202.535,1760.4,1172.273,1694.266,1144.004,1693.619z"/>
						</g>
					</g>
					<g>
						<g>
							<path style="fill:#97A6B7;" d="M1144.401,2030.599c-73.578-0.359-133.923-79.09-133.994-175.446
								c-0.071-96.295,60.09-173.182,133.586-171.462c72.923,1.707,131.956,80.283,132.109,175.222
								C1276.254,1953.913,1217.404,2030.956,1144.401,2030.599z M1144.004,1693.619c-67.469-1.544-122.662,70.964-122.592,161.691
								c0.07,90.78,55.436,164.975,122.977,165.341c67.056,0.363,121.143-72.283,121.002-161.888
								C1265.25,1769.21,1210.99,1695.152,1144.004,1693.619z"/>
						</g>
					</g>
					<g>
						<g>
							<polygon style="fill:#97A6B7;" points="1327.762,1866.183 957.555,1861.11 957.55,1851.073 1327.744,1856.343 							"/>
						</g>
					</g>
					<g>
						<g>
							<g>
								<polygon style="fill:#97A6B7;" points="1305.467,1787.117 973.049,1781.145 973.043,1771.123 1305.45,1777.269 								"/>
							</g>
						</g>
						<g>
							<g>
								<polygon style="fill:#97A6B7;" points="1305.73,1941.486 973.146,1938.237 973.14,1928.205 1305.713,1931.628 								"/>
							</g>
						</g>
					</g>
				</g>
				<g>
					<g>
						<g>
							<path style="fill:#97A6B7;" d="M1024.958,2161.764c0.012,15.413-13.709,27.994-30.675,28.101
								c-16.996,0.106-30.804-12.344-30.814-27.807c-0.009-15.462,13.782-28.04,30.775-28.096
								C1011.207,2133.906,1024.946,2146.353,1024.958,2161.764z"/>
						</g>
						<g>
							<path style="fill:#97A6B7;" d="M1051.515,2233.96c-9.903-19.954-31.718-32.24-57.109-32.065
								c-25.46,0.176-47.426,12.825-57.412,33.052L1051.515,2233.96z"/>
						</g>
					</g>
					<g>
						<g>
							<path style="fill:#97A6B7;" d="M1176.296,2161.042c0.02,15.289-13.476,27.769-30.17,27.873
								c-16.724,0.104-30.317-12.246-30.333-27.584c-0.017-15.337,13.547-27.814,30.268-27.869
								C1162.752,2133.407,1176.277,2145.755,1176.296,2161.042z"/>
						</g>
						<g>
							<path style="fill:#97A6B7;" d="M1202.465,2232.66c-9.755-19.795-31.227-31.983-56.211-31.811
								c-25.052,0.173-46.659,12.719-56.474,32.781L1202.465,2232.66z"/>
						</g>
					</g>
					<g>
						<g>
							<path style="fill:#97A6B7;" d="M1325.223,2160.332c0.027,15.167-13.248,27.547-29.677,27.65
								c-16.458,0.103-29.84-12.15-29.864-27.365c-0.024-15.215,13.318-27.591,29.772-27.645
								C1311.88,2132.917,1325.196,2145.167,1325.223,2160.332z"/>
						</g>
						<g>
							<path style="fill:#97A6B7;" d="M1351.012,2231.38c-9.61-19.638-30.747-31.73-55.335-31.561
								c-24.653,0.17-45.91,12.615-55.559,32.516L1351.012,2231.38z"/>
						</g>
					</g>
				</g>
				<g>
					<path style="fill:#97A6B7;" d="M1363.239,2267.394c0.01,5.441-4.738,9.905-10.608,9.969l-401.955,4.461
						c-6.132,0.068-11.108-4.389-11.111-9.954l0,0c-0.003-5.565,4.969-10.127,11.1-10.188l401.929-4.032
						C1358.464,2257.59,1363.228,2261.953,1363.239,2267.394L1363.239,2267.394z"/>
				</g>
				<g>
					<path style="fill:#97A6B7;" d="M2687.249,2375.243l-1167.603,17.224c-25.954,0.382-47.682-19.06-47.737-43.369l-1.581-703.706
						c-0.054-24.194,21.265-43.276,47.155-42.543l1165.097,32.95c22.646,0.641,41.78,19.506,41.923,42.053l4.165,655.723
						C2728.813,2356.222,2709.943,2374.908,2687.249,2375.243z M1518.647,1612.577c-20.128-0.559-35.602,14.287-35.559,33.092
						l1.609,703.215c0.043,18.893,15.625,34.046,35.802,33.759l1166.572-16.561c17.655-0.251,31.498-14.78,31.386-32.404
						l-4.145-656.068c-0.111-17.546-14.106-32.217-31.723-32.706L1518.647,1612.577z"/>
				</g>
				<g>
					<g>
						<path style="fill:#97A6B7;" d="M1680.351,2478.891c0.018,6.246-5.33,11.418-11.951,11.552l-715.78,14.49
							c-7.157,0.145-12.966-5.007-12.969-11.508l0,0c-0.003-6.5,5.799-11.88,12.956-12.016l715.728-13.598
							C1674.955,2467.685,1680.333,2472.646,1680.351,2478.891L1680.351,2478.891z"/>
					</g>
					<g>
						<path style="fill:#97A6B7;" d="M1680.569,2553.224c0.018,6.249-5.332,11.445-11.954,11.606l-715.953,17.42
							c-7.159,0.174-12.969-4.957-12.972-11.461l0,0c-0.003-6.503,5.801-11.909,12.959-12.075l715.9-16.528
							C1675.171,2542.034,1680.55,2546.975,1680.569,2553.224L1680.569,2553.224z"/>
					</g>
					<g>
						<path style="fill:#97A6B7;" d="M1680.786,2627.592c0.018,6.252-5.333,11.473-11.957,11.661l-716.125,20.353
							c-7.161,0.203-12.972-4.907-12.975-11.414l0,0c-0.003-6.507,5.802-11.939,12.962-12.134l716.072-19.46
							C1675.387,2616.418,1680.768,2621.34,1680.786,2627.592L1680.786,2627.592z"/>
					</g>
				</g>
				<g>
					<g>
						<path style="fill:#97A6B7;" d="M2437.844,2464.029c0.032,5.985-4.867,10.937-10.948,11.06l-656.283,13.285
							c-6.551,0.133-11.882-4.801-11.901-11.02l0,0c-0.02-6.219,5.278-11.361,11.829-11.485l656.239-12.468
							C2432.859,2453.285,2437.811,2458.043,2437.844,2464.029L2437.844,2464.029z"/>
					</g>
					<g>
						<path style="fill:#97A6B7;" d="M2438.228,2535.26c0.032,5.988-4.869,10.962-10.95,11.111l-656.427,15.971
							c-6.553,0.159-11.884-4.755-11.904-10.977l0,0c-0.02-6.222,5.279-11.388,11.832-11.539l656.383-15.154
							C2433.243,2524.532,2438.196,2529.273,2438.228,2535.26L2438.228,2535.26z"/>
					</g>
					<g>
						<path style="fill:#97A6B7;" d="M2438.613,2606.526c0.032,5.991-4.869,10.988-10.952,11.16l-656.571,18.66
							c-6.554,0.186-11.887-4.709-11.907-10.934l0,0c-0.02-6.225,5.281-11.415,11.834-11.593l656.527-17.841
							C2433.627,2595.813,2438.581,2600.535,2438.613,2606.526L2438.613,2606.526z"/>
					</g>
				</g>
				<g>
					<g>
						<path style="fill:#97A6B7;" d="M2713.293,2594.312c0.053,8.423-6.781,15.387-15.201,15.627l0,0
							c-8.428,0.24-15.363-6.464-15.415-14.901l-0.795-128.265c-0.052-8.429,6.795-15.345,15.219-15.506l0,0
							c8.416-0.161,15.333,6.578,15.386,14.994L2713.293,2594.312z"/>
					</g>
					<g>
						<path style="fill:#97A6B7;" d="M2652.108,2595.951c0.052,8.453-6.673,15.537-15.154,15.778l0,0
							c-8.489,0.241-15.318-6.392-15.369-14.86l-0.662-110.357c-0.051-8.462,6.693-15.492,15.179-15.664l0,0
							c8.478-0.172,15.283,6.504,15.334,14.95L2652.108,2595.951z"/>
					</g>
					<g>
						<path style="fill:#97A6B7;" d="M2526.921,2599.905c0.047,8.322-6.518,15.201-14.929,15.44l-0.932,0.013
							c-8.419,0.239-14.427-6.363-14.474-14.699l-0.332-59.382c-0.047-8.333,5.408-15.293,13.825-15.507l1.534,0.005
							c8.408-0.214,14.923,6.529,14.97,14.847L2526.921,2599.905z"/>
					</g>
					<g>
						<path style="fill:#97A6B7;" d="M2587.724,2597.691c0.05,8.484-6.564,15.598-15.108,15.841l0,0
							c-8.552,0.243-15.268-6.412-15.317-14.912l-0.481-83.084c-0.049-8.495,6.584-15.567,15.134-15.754l0,0
							c8.541-0.187,15.234,6.501,15.284,14.98L2587.724,2597.691z"/>
					</g>
				</g>
			</g>
		</g>
		<g>
			<g>
				
					<linearGradient id="SVGID_00000159442679090138838210000018012159103347500934_" gradientUnits="userSpaceOnUse" x1="2087.0437" y1="519.2356" x2="2565.7683" y2="1288.8987">
					<stop  offset="0" style="stop-color:#311944"/>
					<stop  offset="1" style="stop-color:#893976"/>
				</linearGradient>
				<path style="fill:url(#SVGID_00000159442679090138838210000018012159103347500934_);" d="M2839.833,654.054L1943.8,605.798
					c-73.804-3.975-133.949,50.357-133.949,121.374v490.974c0,71.017,60.145,130.07,133.949,131.888l292.94,7.217l136.706,161.552
					c8.242,9.74,22.666,11.326,32.828,3.609l0,0l131.473-157.744l302.086,7.442c68.314,1.683,123.416-51.937,123.416-119.755
					V783.496C2963.249,715.678,2908.147,657.733,2839.833,654.054z"/>
				
					<linearGradient id="SVGID_00000135677834189161241540000011056106365946983040_" gradientUnits="userSpaceOnUse" x1="2663.2585" y1="643.573" x2="1753.48" y2="1810.314">
					<stop  offset="0" style="stop-color:#FFC444"/>
					<stop  offset="0.0985" style="stop-color:#FEBC46"/>
					<stop  offset="0.9964" style="stop-color:#F36F56"/>
				</linearGradient>
				<path style="fill:url(#SVGID_00000135677834189161241540000011056106365946983040_);" d="M2857.667,639.786l-896.033-48.256
					c-73.804-3.975-133.949,50.357-133.949,121.375v490.974c0,71.017,60.145,130.07,133.949,131.888l292.94,7.217l133.368,157.607
					c9.491,11.215,26.74,11.344,36.398,0.272l131.241-150.464l302.086,7.442c68.314,1.683,123.416-51.937,123.416-119.755V769.229
					C2981.083,701.411,2925.982,643.466,2857.667,639.786z"/>
			</g>
			<g>
				<path style="fill:#FFFFFF;" d="M2654.404,859.346v329.836h0.785c-1.141,10.471-112.824,23.141-250.475,23.141
					c-137.626,0-249.334-12.67-250.475-23.141h2.794V859.346H2654.404z"/>
				<path style="fill:#FFFFFF;" d="M2654.404,1136.304v52.878h0.785c-1.141,10.471-112.824,23.141-250.475,23.141
					c-137.626,0-249.334-12.67-250.475-23.141h2.794V920.551c36.648,14.336,96.335,45.512,106.901,98.266
					c15.378,76.886,126.273,102.928,238.229,85.567C2555.338,1096.124,2612.52,1110.733,2654.404,1136.304z"/>
				<polygon style="fill:#FFFFFF;" points="2786.328,880.288 2410.556,694.711 2034.784,880.288 2020.91,880.288 2020.91,887.429 
					2020.91,887.429 2410.953,1080.446 2800.997,887.429 2800.997,887.429 2800.997,880.288 				"/>
				<polygon style="fill:#FFFFFF;" points="2410.556,686.971 2019.718,879.988 2410.556,1073.005 2801.394,879.988 				"/>
				<g>
					<path style="fill:#FFFFFF;" d="M2798.379,1147.964c-2.866,0-2.618-2.324-2.618-5.19V889.765c0-5.723-5.807-9.477-11.53-9.477
						h-373.675c-2.866,0-5.19-2.369-5.19-5.236s2.323-5.235,5.19-5.235h373.675c11.447,0,16.766,8.501,16.766,19.948v253.009
						C2800.997,1145.64,2801.246,1147.964,2798.379,1147.964z"/>
				</g>
				<path style="fill:#FFFFFF;" d="M2813.596,1101.984l-5.109-7.857c-1.689-2.98-5.199-4.8-8.624-4.744
					c-3.425,0.056-6.71,1.977-8.302,5.01l-4.491,8.177c-1.037,1.976-1.78,4.174-1.78,6.406v68.829c0,1.478,7.824,2.676,15.707,2.676
					s15.707-1.198,15.707-2.676v-69.024C2816.704,1106.4,2814.771,1104.057,2813.596,1101.984z"/>
			</g>
		</g>
		<g>
			
				<linearGradient id="SVGID_00000054232960470687997180000006156978783132117949_" gradientUnits="userSpaceOnUse" x1="-2611.0735" y1="1154.115" x2="-2418.0134" y2="1154.115" gradientTransform="matrix(-1 0 0 1 -1104.5378 0)">
				<stop  offset="0" style="stop-color:#FF9085"/>
				<stop  offset="1" style="stop-color:#FB6FBB"/>
			</linearGradient>
			<path style="fill:url(#SVGID_00000054232960470687997180000006156978783132117949_);" d="M1345.73,953.763
				c24.308-7.1,56.794,37.534,83.801,74.639c40.404,55.51,87.61,120.367,74.893,198.245c-12.511,76.62-78.199,136.293-96.92,127.758
				c-16.012-7.301,14.773-58.833-8.811-127.758c-19.03-55.616-50.561-55.636-71.706-110.163
				C1300.745,1048.813,1315.825,962.497,1345.73,953.763z"/>
			
				<linearGradient id="SVGID_00000049915202920573072810000010791591722482937503_" gradientUnits="userSpaceOnUse" x1="-1941.9525" y1="1516.601" x2="-1567.5685" y2="1516.601" gradientTransform="matrix(-1 0 0 1 -102.9487 0)">
				<stop  offset="0" style="stop-color:#311944"/>
				<stop  offset="1" style="stop-color:#A03976"/>
			</linearGradient>
			<path style="fill:url(#SVGID_00000049915202920573072810000010791591722482937503_);" d="M1357.757,1306.684
				c125.196,30.394,207.661,79.186,255.822,113.698c26.101,18.705,38.158,30.371,44.667,47.375
				c37.086,96.902-153.451,243.417-173.756,258.76c-8.87-20.68-17.738-41.361-26.607-62.042
				c19.688-108.066,52.467-141.968,79.896-152.051c7.673-2.82,20.553-5.845,20.303-9.475c-0.591-8.585-72.962,3.649-142.124-21.656
				c-68.964-25.234-138.251-89.082-125.88-131.295C1292.338,1342.293,1301.798,1320.019,1357.757,1306.684z"/>
			
				<linearGradient id="SVGID_00000058562544122613614320000007998209721456856712_" gradientUnits="userSpaceOnUse" x1="4650.9878" y1="1009.9395" x2="4667.1699" y2="1301.2253" gradientTransform="matrix(0.9565 0.2918 -0.2918 0.9565 -2636.6191 -392.2555)">
				<stop  offset="0" style="stop-color:#444B8C"/>
				<stop  offset="0.9964" style="stop-color:#26264F"/>
			</linearGradient>
			<path style="fill:url(#SVGID_00000058562544122613614320000007998209721456856712_);" d="M1479.156,2014.967
				c0,0-11.654,4.152-11.697,13.368c-0.043,9.216,11.804,49.815,24.675,64.24c12.87,14.425,14.021-7.096,13.225-20.959
				c-0.795-13.864-4.17-44.896-7.352-50.897C1494.824,2014.72,1479.156,2014.967,1479.156,2014.967z"/>
			
				<linearGradient id="SVGID_00000098178650775090760660000005061653620593616259_" gradientUnits="userSpaceOnUse" x1="-1765.968" y1="1530.6868" x2="-1391.5844" y2="1530.6868" gradientTransform="matrix(-1 0 0 1 -102.9487 0)">
				<stop  offset="0" style="stop-color:#311944"/>
				<stop  offset="1" style="stop-color:#A03976"/>
			</linearGradient>
			<path style="fill:url(#SVGID_00000098178650775090760660000005061653620593616259_);" d="M1516.574,1448.356
				c22.748-0.446,76.045-4.691,90.236,21.656c11.838,21.982-8.901,55.304-21.658,75.799c-34.677,55.719-68.334,61.418-92.042,95.651
				c-9.176,13.251-17.49,31.759-20.136,58.203c-5.032-11.731-10.063-23.461-15.092-35.192
				c19.688-108.064,52.467-141.968,79.896-152.049c7.673-2.82,20.553-5.845,20.303-9.475c-0.591-8.586-72.962,3.649-142.124-21.656
				c-62.865-23.003-125.789-78.046-127.092-119.586C1388.416,1433.108,1463.34,1449.4,1516.574,1448.356z"/>
			
				<linearGradient id="SVGID_00000060025718496712948580000011639656018254949280_" gradientUnits="userSpaceOnUse" x1="1472.4219" y1="2019.6879" x2="1496.7666" y2="2019.6879">
				<stop  offset="0" style="stop-color:#FFC444"/>
				<stop  offset="0.9964" style="stop-color:#F36F56"/>
			</linearGradient>
			<path style="fill:url(#SVGID_00000060025718496712948580000011639656018254949280_);" d="M1472.422,1975.805
				c0.687,14.203,1.892,26.078,2.979,34.896c2.405,19.509,4.616,27.228,7.644,34.26c2.642,6.126,9.244,19.491,12.396,18.564
				c3.203-0.94-0.092-15.747-2.587-56.927c-0.363-5.977-1.464-25.005-1.464-25.005l0,0L1472.422,1975.805z"/>
			
				<linearGradient id="SVGID_00000033349825294781243450000017516895924893512067_" gradientUnits="userSpaceOnUse" x1="-1742.0446" y1="1284.1497" x2="-1406.363" y2="1692.0204" gradientTransform="matrix(-1 0 0 1 -102.9487 0)">
				<stop  offset="0" style="stop-color:#311944"/>
				<stop  offset="1" style="stop-color:#A03976"/>
			</linearGradient>
			<path style="fill:url(#SVGID_00000033349825294781243450000017516895924893512067_);" d="M1285.568,1314.806
				c72.133,43.49,118.96,92.939,146.184,126.332c32.139,39.42,81.024,99.382,98.723,188.792c9.435,47.658,4.792,90.408-4.877,173.96
				c-9.604,82.985-23.371,150.547-34.141,196.688c-5.546,2.227-11.093,4.454-16.639,6.68
				c-14.859-27.297-34.294-70.508-41.261-125.765c-11.399-90.405,22.422-119.133,6.188-183.246
				c-14.062-55.54-54.807-89.595-136.296-157.705c-66.954-55.959-128.689-89.159-151.605-158.959
				c-3.893-11.853-7.2-26.393-0.856-39.707C1164.658,1313.186,1216.968,1303.175,1285.568,1314.806z"/>
			
				<linearGradient id="SVGID_00000146501337082099604580000013544531484953605029_" gradientUnits="userSpaceOnUse" x1="-745.8152" y1="658.4047" x2="-1189.7828" y2="1030.1831" gradientTransform="matrix(-0.9987 -0.0509 -0.0509 0.9987 -8.7567 27.2223)">
				<stop  offset="0" style="stop-color:#311944"/>
				<stop  offset="1" style="stop-color:#6B3976"/>
			</linearGradient>
			<path style="fill:url(#SVGID_00000146501337082099604580000013544531484953605029_);" d="M1227.987,958.935
				c18.724-4.027,49.514-3.227,78.869-26.343c8.838-6.959,40.144-31.612,36.343-66.886c-3.346-31.054-32.778-47.743-36.39-49.73
				c-20.836-11.468-41.608-8.919-64.645-5.769c-29.872,4.085-39.795,12.245-60.553,17.842
				c-51.354,13.842-68.72-15.051-120.423-12.612c-66.083,3.115-71.799,51.92-127.398,53.138
				c-62.417,1.367-74.378-59.72-136.004-70.07c-85.538-14.366-214.959,77.717-212.353,183.87
				c1.505,61.31,47.158,131.575,105.471,152.669c33.989,12.295,70.666,8.39,81.135,30.493c7.451,15.729-9.299,27.849-7.716,55.255
				c2.036,35.333,32.457,60.128,37.369,64.131c45.6,37.169,147.837,18.393,217.652-34.2
				C1145.24,1155.88,1126.186,980.838,1227.987,958.935z"/>
			
				<linearGradient id="SVGID_00000103237757315397884550000003119815213044245407_" gradientUnits="userSpaceOnUse" x1="1060.4557" y1="1296.2404" x2="1421.0061" y2="972.0753">
				<stop  offset="0" style="stop-color:#FF9085"/>
				<stop  offset="1" style="stop-color:#FB6FBB"/>
			</linearGradient>
			<path style="fill:url(#SVGID_00000103237757315397884550000003119815213044245407_);" d="M1083.375,946.332
				c42.404-5.225,91.312-9.201,145.661-9.94c114.842-1.56,131.282,13.002,135.488,23.782c7.843,20.095-5.592,30.166,2.037,65.205
				c4.561,20.95,0.25,30.498,9.068,53.008c8.594,21.938,1.853,33.732-5.746,85.173c-9.716,65.778-14.199,99.208,4.208,125.725
				c12.789,18.424,27.098,19.985,25.735,28.737c-2.906,18.646-67.375,8.363-149,44.159c-23.629,10.361-45.379,23.131-63.617,33.839
				c-42.708,25.072-50.609,34.661-70.385,46.02c-62.545,35.927-156.497,39.389-205.74-4.061
				c-18.358-16.199-31.738-40.011-25.718-48.727c8.199-11.868,44.862,15.089,78.506-1.354c22.288-10.894,18.054-28.516,43.822-49.28
				c31.011-24.99,52.571-11.896,73.679-28.156c32.926-25.364,17.947-86.094,8.705-187.913
				C1086.252,1080.396,1082.414,1020.208,1083.375,946.332z"/>
			
				<linearGradient id="SVGID_00000036969297310890993630000013729410438954970522_" gradientUnits="userSpaceOnUse" x1="1163.8149" y1="924.1342" x2="1290.9369" y2="924.1342">
				<stop  offset="0" style="stop-color:#FFC444"/>
				<stop  offset="0.9964" style="stop-color:#F36F56"/>
			</linearGradient>
			<path style="fill:url(#SVGID_00000036969297310890993630000013729410438954970522_);" d="M1207.657,922.677
				c-15.663,9.716-40.982,22.416-43.771,25.864c-2.788,3.443,76.704,17.055,126.166-7.906c0,0,7.668-4.26-22.15-10.223
				c-6.354-1.271-5.112-13.631-4.26-26.41l-5.963-11.075C1257.679,892.927,1223.318,912.954,1207.657,922.677z"/>
			
				<linearGradient id="SVGID_00000075136693541705889040000006330813352309955724_" gradientUnits="userSpaceOnUse" x1="1282.9142" y1="856.9684" x2="1080.8274" y2="1826.9838">
				<stop  offset="0" style="stop-color:#FFC444"/>
				<stop  offset="0.9964" style="stop-color:#F36F56"/>
			</linearGradient>
			<path style="fill:url(#SVGID_00000075136693541705889040000006330813352309955724_);" d="M1247.171,885.402
				c0,0-6.144,26.065,16.81,38.947c20.554,11.537,55.328-35.752,48.833-53.326c-2.166-5.862-9.905-13.396-17.995-15.928
				c-5.689-1.782-27.216-1.095-36.436,17.029c-2.416-5.299-6.739-8.077-9.645-7.206c-3.687,1.101-4.228,7.813-4.353,9.332
				C1243.959,879.521,1246.084,883.609,1247.171,885.402z"/>
			
				<linearGradient id="SVGID_00000067920253584820360230000014788135694156133511_" gradientUnits="userSpaceOnUse" x1="1072.3005" y1="1309.4143" x2="1432.8525" y2="985.2477">
				<stop  offset="0" style="stop-color:#FF9085"/>
				<stop  offset="1" style="stop-color:#FB6FBB"/>
			</linearGradient>
			<path style="opacity:0.3;fill:url(#SVGID_00000067920253584820360230000014788135694156133511_);" d="M1282.764,1303.235
				c-23.649,9.802-26.841,30.986-59.541,43.002c-31.193,11.462-41.659-2.901-72.771,6.616
				c-46.729,14.294-64.597,59.383-71.669,55.13c-6.48-3.896-0.266-47.031,29.77-74.977c34.494-32.095,71.647-17.397,93.721-50.719
				c8.588-12.965,15.21-33.677,7.718-49.617c-10.152-21.601-36.668-14.11-50.72-31.976c-25.245-32.098,33.833-89.991,17.642-138.928
				c-6.462-19.53-27.036-44.009-93.388-60.394c0.901,49.053,3.727,90.046,6.552,121.176c9.242,101.819,24.222,162.551-8.705,187.914
				c-21.108,16.26-42.668,3.166-73.679,28.156c-25.768,20.764-21.534,38.386-43.822,49.28
				c-33.644,16.443-70.307-10.513-78.506,1.353c-6.02,8.717,7.359,32.529,25.718,48.728c49.243,43.448,143.195,39.987,205.74,4.061
				c19.777-11.36,27.678-20.949,70.385-46.021c18.238-10.709,39.988-23.478,63.617-33.84
				c57.282-25.121,106.082-27.552,131.118-33.21C1332.238,1295.825,1301.958,1295.279,1282.764,1303.235z"/>
			<g>
				
					<linearGradient id="SVGID_00000036224281158669951130000004182807893796256687_" gradientUnits="userSpaceOnUse" x1="1210.809" y1="1366.4412" x2="1494.717" y2="1366.4412">
					<stop  offset="0" style="stop-color:#444B8C"/>
					<stop  offset="0.9964" style="stop-color:#26264F"/>
				</linearGradient>
				<path style="fill:url(#SVGID_00000036224281158669951130000004182807893796256687_);" d="M1487.764,1345.341l-259.749,12.639
					c-3.575,0.175-6.836,2.09-8.728,5.128l-7.188,11.536c-3.577,5.742,0.721,13.149,7.483,12.891l275.135-10.481L1487.764,1345.341z
					"/>
				
					<linearGradient id="SVGID_00000017478394700994342090000015973105874165341105_" gradientUnits="userSpaceOnUse" x1="1377.5135" y1="1290.7325" x2="1767.1993" y2="1290.7325">
					<stop  offset="0" style="stop-color:#444B8C"/>
					<stop  offset="0.9964" style="stop-color:#26264F"/>
				</linearGradient>
				<path style="fill:url(#SVGID_00000017478394700994342090000015973105874165341105_);" d="M1757.923,1200.695l-268.349,5.2
					c-7.941,0.154-15.212,4.479-19.135,11.383l-92.927,163.494l283.409-11.292c7.779-0.31,14.877-4.522,18.875-11.202
					l86.096-143.835C1769.56,1208.321,1765.059,1200.557,1757.923,1200.695z"/>
				
					<linearGradient id="SVGID_00000131328494637590319640000004835731353025224586_" gradientUnits="userSpaceOnUse" x1="64.0028" y1="1187.3501" x2="250.1413" y2="1371.9994" gradientTransform="matrix(-1 0 0 1 1740.2787 0)">
					<stop  offset="0" style="stop-color:#444B8C"/>
					<stop  offset="0.9964" style="stop-color:#26264F"/>
				</linearGradient>
				<path style="opacity:0.3;fill:url(#SVGID_00000131328494637590319640000004835731353025224586_);" d="M1470.438,1217.279
					c3.924-6.905,11.196-11.23,19.136-11.384l5.88-0.114c0.877,8.662,3.535,16.586,8.835,22.984
					c16.547,19.973,44.038,7.653,64.529,28.791c22.508,23.218,1.715,50.859,21.839,72.469c21.183,22.744,55.435,4.225,94.81,18.781
					l-5.67,9.472c-3.998,6.681-11.096,10.893-18.875,11.203l-283.409,11.292L1470.438,1217.279z"/>
			</g>
			<g>
				
					<linearGradient id="SVGID_00000021804924154015329220000016221113476835830197_" gradientUnits="userSpaceOnUse" x1="1209.8615" y1="1293.8176" x2="934.5215" y2="1022.8835">
					<stop  offset="0" style="stop-color:#FF9085"/>
					<stop  offset="1" style="stop-color:#FB6FBB"/>
				</linearGradient>
				<path style="fill:url(#SVGID_00000021804924154015329220000016221113476835830197_);" d="M1260.14,1336.661
					c3.382-8.928,6.763-17.854,10.143-26.785c-37.365-10.244-89.043-25.38-142.049-44.321c-13.097-4.68-17.891-10.73-21.394-15.376
					c-27.176-36.042,41.983-99.625,40.744-182.129c-0.858-57.19-35.531-122.61-66.082-123.352
					c-62.101-1.509-199.027,261.996-83.703,374.462C1055.037,1374.981,1161.976,1381.459,1260.14,1336.661z"/>
			</g>
			
				<linearGradient id="SVGID_00000040568558971003472180000016598836860943536060_" gradientUnits="userSpaceOnUse" x1="1257.8876" y1="1325.6467" x2="1351.9999" y2="1325.6467">
				<stop  offset="0" style="stop-color:#FFC444"/>
				<stop  offset="0.9964" style="stop-color:#F36F56"/>
			</linearGradient>
			<path style="fill:url(#SVGID_00000040568558971003472180000016598836860943536060_);" d="M1270.283,1309.877
				c23.458-12.461,51.537,0.312,53.346,1.167c5.155,2.432,12.656,6.767,20.235,14.509c0.858,1.169,11.033,15.269,7.326,19.787
				c-2.971,3.62-14.478,0.619-28.308-7.982c-5.797-0.813-14.427-1.56-24.766-0.607c-18.986,1.751-27.683,7.749-34.575,2.572
				c-5.047-3.789-6.767-11.803-4.951-17.761C1260.541,1315.162,1266.313,1311.987,1270.283,1309.877z"/>
		</g>
		<g>
			<g>
				<g>
					<path style="fill:#26264F;" d="M2166.242,2629.703l-147.212-344.839c-7.354-17.229,2.522-36.938,20.726-41.359l269.658-65.489
						c14.574-3.538,29.545,4.11,35.217,17.993l135.403,331.434c6.742,16.504-2.145,35.235-19.193,40.451l-257.85,78.894
						C2188.175,2651.322,2172.325,2643.953,2166.242,2629.703z"/>
					
						<linearGradient id="SVGID_00000168110623409922964250000005206559373678562960_" gradientUnits="userSpaceOnUse" x1="2325.0562" y1="2316.4717" x2="1776.4104" y2="2962.3467">
						<stop  offset="0" style="stop-color:#FFC444"/>
						<stop  offset="0.0985" style="stop-color:#FEBC46"/>
						<stop  offset="0.9964" style="stop-color:#F36F56"/>
					</linearGradient>
					<path style="fill:url(#SVGID_00000168110623409922964250000005206559373678562960_);" d="M2172.905,2613.117l-137.507-322.104
						c-6.869-16.093,2.356-34.503,19.36-38.633l251.881-61.17c13.613-3.306,27.596,3.839,32.894,16.807l126.475,309.583
						c6.298,15.416-2.002,32.912-17.927,37.785l-240.85,73.693C2193.392,2633.311,2178.587,2626.427,2172.905,2613.117z"/>
				</g>
				
					<linearGradient id="SVGID_00000044139947619894878120000010407131995763838633_" gradientUnits="userSpaceOnUse" x1="2092.1501" y1="2394.2769" x2="2051.5159" y2="2579.781">
					<stop  offset="0" style="stop-color:#FFC444"/>
					<stop  offset="0.9964" style="stop-color:#F36F56"/>
				</linearGradient>
				<path style="fill:url(#SVGID_00000044139947619894878120000010407131995763838633_);" d="M2088.014,2518.429l-4.417-40.634
					l-23.413-44.632c-3.189-6.077-4.854-12.839-4.854-19.702v-44.319l28.267,65.368c0,0,18.551-16.783,25.618-20.317
					c7.067-3.533,6.183,10.601,0.884,15.901c-5.301,5.3,2.649,48.584-2.65,53.001l1.767,26.501L2088.014,2518.429z"/>
				
					<linearGradient id="SVGID_00000144297538163337921880000012900412512573074314_" gradientUnits="userSpaceOnUse" x1="2459.3206" y1="2378.3179" x2="2929.2651" y2="2827.0615">
					<stop  offset="0.0036" style="stop-color:#E38DDD"/>
					<stop  offset="1" style="stop-color:#9571F6"/>
				</linearGradient>
				<path style="fill:url(#SVGID_00000144297538163337921880000012900412512573074314_);" d="M2312.386,2259.606
					c21.982-53.755,69.168-84.67,93.636-100.702c57.893-37.932,94.957-31.006,227.906-51.235
					c177.182-26.958,198.391-52.502,257.939-31.801c78.222,27.193,119.081,98.199,137.804,130.737
					c94.392,164.04-15.967,247.416,12.367,574.18c11.571,133.452,41.24,249.422-30.034,318.008
					c-15.007,14.441-31.794,21.994-65.368,37.101c-133.15,59.911-252.531,49.583-325.075,42.401
					c-79.825-7.904-120.17-12.43-141.337-40.635c-33.81-45.052,0.995-102.31,7.068-201.405
					c4.36-71.145-11.817-127.521-44.168-240.272C2367.912,2433.859,2270.269,2362.594,2312.386,2259.606z"/>
				<g>
					<g>
						
							<linearGradient id="SVGID_00000101104517346170416230000018077323477123142543_" gradientUnits="userSpaceOnUse" x1="5865.2788" y1="1349.2706" x2="6158.4316" y2="1718.094" gradientTransform="matrix(0.9663 0.2576 -0.2576 0.9663 -2744.3408 -923.8408)">
							<stop  offset="0" style="stop-color:#FFC444"/>
							<stop  offset="0.9964" style="stop-color:#F36F56"/>
						</linearGradient>
						<path style="fill:url(#SVGID_00000101104517346170416230000018077323477123142543_);" d="M2608.96,2010.974
							c-8.066-28.738,6.037-55.352,9.145-61.086c13.014-24.008,16.347-27.288,22.556-31.446l8.631-5.325c0,0,0.5-0.2,1.026-0.389
							c5.539-1.971,24.418-2.545,28.242-1.728c12.217,2.609,25.225,52.381,21.514,122.749c0.507,2.681,0.994,5.386,1.467,8.113
							c1.925,11.113,3.453,22.005,4.635,32.654c1.131,10.187,15.575,9.954,25.804,9.301c41.517-2.65,61.835,0.884,63.602,7.067
							c3.311,11.587-45.935,49.469-106.742,57.99c-81.608,0.606-147.992-8.083-140.858-20.934
							c3.168-5.705,66.398-22.226,84.181-38.603c16.282-14.996,14.956-30.476,16.295-41.559
							C2643.522,2045.218,2614.897,2032.147,2608.96,2010.974z"/>
						<path style="fill:#26264F;" d="M2623.971,1893.129c0.073,21.8,10.344,45.083,15.578,48.823
							c0.675,0.484,4.479,3.488,7.895,8.625c0.466,0.698,0.877,1.517,1.243,2.576c4.775,13.738-17.067,29.905-12.852,36.056
							c3.059,4.462,17.904-1.505,19.67,2.349c1.662,3.625-10.676,11.135-8.786,15.478c1.425,3.28,9.018,0.28,13.807,5.303
							c2.386,2.503,1.686,4.485,4.215,12.133c1.43,4.325,3.43,9.058,4.98,11.691c7.535,12.8,28.873,17.476,32.979,12.353
							c1.142-1.428,0.161-2.627,1.328-7.418c0,0,1.082-4.44,4.171-9.573c4.414-7.335,15.068-12.579,25.821-20.321
							c19.909-14.337,25.321-26.558,26.945-30.687c0.578-1.471,0.937-2.581,1.196-3.381c5.177-16.069,5.2-39.671-2.024-54.186
							c-12.101-24.315-39.401-12.77-61.745-36.863c-25.781-27.795-10.427-65.79-24.417-69.985
							C2658.556,1811.475,2623.838,1852.82,2623.971,1893.129z"/>
						
							<linearGradient id="SVGID_00000170266385175323587850000013455072311990198685_" gradientUnits="userSpaceOnUse" x1="5879.3091" y1="1330.7054" x2="6206.6201" y2="1742.5045" gradientTransform="matrix(0.9663 0.2576 -0.2576 0.9663 -2744.3408 -923.8408)">
							<stop  offset="0" style="stop-color:#FFC444"/>
							<stop  offset="0.9964" style="stop-color:#F36F56"/>
						</linearGradient>
						<path style="fill:url(#SVGID_00000170266385175323587850000013455072311990198685_);" d="M2643.671,1984.087
							c5.344-7.342,14.733-0.443,14.787,9.055c0.056,9.498-9.148,19.375-18.077,17.499
							C2631.451,2008.765,2636.481,1993.968,2643.671,1984.087z"/>
					</g>
					<path style="fill:#26264F;" d="M2648.005,1968.195l-12.396,16.125c0,0-13.363,19.756-21.165,8.933
						c-6.373-8.843-8.026-8.646-8.416-8.276c-0.074,0.07-0.094,0.176-0.112,0.171c-0.111-0.03,0.935-4.402,1.875-8.245
						c-3.299,4.737-7.847,12.421-10.602,22.76c-2.675,10.042-5.542,20.794,0.124,31.124c0.327,0.595,6.569,11.59,18.223,14.25
						c0,0,4.583,1.046,23.947-2.358c0,0-21.166-15.359-21.49-19.007c-0.877-9.921,12.882-15.283,23.098-35.622
						C2645.033,1980.204,2646.975,1973.09,2648.005,1968.195z"/>
				</g>
				
					<linearGradient id="SVGID_00000049190139499392730290000010478032004899049600_" gradientUnits="userSpaceOnUse" x1="2285.8323" y1="2560.0024" x2="2755.7771" y2="3008.7463">
					<stop  offset="0.0036" style="stop-color:#E38DDD"/>
					<stop  offset="1" style="stop-color:#9571F6"/>
				</linearGradient>
				<path style="opacity:0.3;fill:url(#SVGID_00000049190139499392730290000010478032004899049600_);" d="M2690.462,3084.659
					c-23.484-46.761,34.062-108.918-3.533-180.205c-31.93-60.544-89.934-46.98-116.602-102.469
					c-32.212-67.02,37.842-117.111,35.333-219.072c-2.999-121.89-107.88-243.906-169.604-233.205
					c-39.935,6.923-45.066,66.501-73.164,131.726c24.863,54.52,53.912,122.823,80.23,214.549
					c32.352,112.751,48.528,169.127,44.168,240.272c-6.073,99.095-40.877,156.354-7.068,201.405
					c21.167,28.204,61.512,32.731,141.337,40.635c72.544,7.182,191.925,17.51,325.075-42.401
					c16.854-7.583,29.471-13.264,39.762-18.867C2778.375,3148.267,2709.089,3121.749,2690.462,3084.659z"/>
				
					<linearGradient id="SVGID_00000083773770982407475220000003778055041241681564_" gradientUnits="userSpaceOnUse" x1="2356.0791" y1="2486.437" x2="2826.0234" y2="2935.1804">
					<stop  offset="0.0036" style="stop-color:#E38DDD"/>
					<stop  offset="1" style="stop-color:#9571F6"/>
				</linearGradient>
				<path style="fill:url(#SVGID_00000083773770982407475220000003778055041241681564_);" d="M2080.065,2510.478
					c12.956-5.594,25.911-11.189,38.868-16.783c21.896,22.395,49.825,44.171,73.318,37.1
					c35.019-10.539,26.263-74.962,68.901-188.155c48.312-128.251,103.125-161.217,130.737-173.137
					c15.423-6.659,26.07-11.079,38.868-7.95c58.888,14.395,78.358,167.851,61.835,282.673
					c-9.31,64.693-27.563,191.544-131.62,251.756c-14.781,8.554-96.146,55.636-176.671,18.551
					C2115.509,2682.851,2073.001,2601.566,2080.065,2510.478z"/>
			</g>
		</g>
		<g>
			
				<linearGradient id="SVGID_00000168803248117031407660000003598555425018374789_" gradientUnits="userSpaceOnUse" x1="1275.2526" y1="2126.3413" x2="1240.8851" y2="3035.1741">
				<stop  offset="0" style="stop-color:#444B8C"/>
				<stop  offset="0.9964" style="stop-color:#26264F"/>
			</linearGradient>
			<path style="fill:url(#SVGID_00000168803248117031407660000003598555425018374789_);" d="M1712.205,2611.115l-30.61,20.893
				l-83.053,56.64c0,0-140.594-62.471-247.004-96.032c-78.957-24.884-412.137,65.942-459.58,72.883
				c-34.047,4.964-60.77,36.753-73.161,54.315c0,0-0.034,0,0,0.036c-4.894,6.906-7.531,11.591-7.531,11.591
				c-15.028-34.706-21.761-90.341,16.243-133.272c37.968-42.896,294.967-79.582,465.028-109.672
				C1462.598,2458.407,1712.205,2611.115,1712.205,2611.115z"/>
			
				<linearGradient id="SVGID_00000029731655454378852090000011253506653342920860_" gradientUnits="userSpaceOnUse" x1="818.2071" y1="2628.3569" x2="1681.5944" y2="2628.3569">
				<stop  offset="0" style="stop-color:#444B8C"/>
				<stop  offset="0.9964" style="stop-color:#26264F"/>
			</linearGradient>
			<path style="opacity:0.2;fill:url(#SVGID_00000029731655454378852090000011253506653342920860_);" d="M1681.594,2632.008
				l-83.053,56.64c0,0-140.594-62.471-247.004-96.032c-78.957-24.884-412.137,65.942-459.58,72.883
				c-34.047,4.964-60.77,36.753-73.161,54.315c-0.312-1.354-0.485-2.706-0.59-4.096c0,0,3.471-86.661,67.677-87.528
				c64.207-0.868,168.325-5.206,193.487-31.236c25.162-26.03,86.766-46.854,129.281-32.104
				c42.515,14.75,112.795-48.589,156.178-20.823c43.383,27.765,129.281,80.692,170.928,72.883
				C1571.541,2610.211,1647.652,2607.332,1681.594,2632.008z"/>
			
				<linearGradient id="SVGID_00000097466809792490077900000012094863584521775531_" gradientUnits="userSpaceOnUse" x1="772.4136" y1="2809.5068" x2="976.9882" y2="2809.5068">
				<stop  offset="0" style="stop-color:#444B8C"/>
				<stop  offset="0.9964" style="stop-color:#26264F"/>
			</linearGradient>
			<path style="fill:url(#SVGID_00000097466809792490077900000012094863584521775531_);" d="M976.988,2800.853
				c0,0-169.482-68.834-166.012-137.379c0,0-8.693-55.906,30.351-75.863c-38.394,19.631-50.154,56.424-57.827,81.358
				c-8.188,26.608-22.559,133.619,5.206,163.119c27.765,29.5,178.046,199.313,178.046,199.313L976.988,2800.853z"/>
			
				<linearGradient id="SVGID_00000031886548097117542190000003189371780378974341_" gradientUnits="userSpaceOnUse" x1="925.9658" y1="2928.8562" x2="1973.0233" y2="2928.8562">
				<stop  offset="0" style="stop-color:#444B8C"/>
				<stop  offset="0.9964" style="stop-color:#26264F"/>
			</linearGradient>
			<path style="fill:url(#SVGID_00000031886548097117542190000003189371780378974341_);" d="M1973.023,2722.244l-18.117,13.118
				l-640.4,463.156l-44.945,32.485l-12.493,9.058l-14.16,10.239c-20.026-3.782-37.899-9.475-53.691-16.174
				c-19.366-9.614-41.681-22.108-60.597-36.442c-0.034-0.034-0.069-0.034-0.069-0.069c-14.959-11.349-28.903-23.842-36.504-36.962
				c-0.103-0.173-1.242-0.278-1.242-0.278v-0.034l-145.253-148.782c0,0-58.694-176.107,27.132-244.085h0.036
				c17.595-15.35,41.266-24.298,72.814-26.901c162.911-13.466,279.038,19.104,439.868-32.296
				c36.823-11.8,70.904-29.805,101.689-53.196c30.819-23.427,78.123-53.254,112.656-46.763
				c54.176,10.169,185.851,73.467,192.272,76.59c0.069,0,0.105,0.013,0.175,0.049c0.034,0.034,0.068,0.024,0.068,0.024
				l28.565,13.184L1973.023,2722.244z"/>
			
				<linearGradient id="SVGID_00000093862215556192810320000001567865446170576831_" gradientUnits="userSpaceOnUse" x1="1061.6042" y1="2967.9541" x2="1973.024" y2="2967.9541">
				<stop  offset="0" style="stop-color:#AA80F9"/>
				<stop  offset="0.9964" style="stop-color:#6165D7"/>
			</linearGradient>
			<path style="fill:url(#SVGID_00000093862215556192810320000001567865446170576831_);" d="M1973.023,2871.028
				c0.242,79.582-55.218,158.886-126.088,178.703l-532.429,148.786l-52.927,14.784c-0.381,0.105-0.798,0.208-1.179,0.313
				c3.332,5.76,6.419,11.591,9.161,17.387c3.923,8.121,7.116,16.174,9.337,23.877c-6.56-0.415-12.947-1.04-19.124-1.874
				c-5.796-0.729-11.419-1.63-16.867-2.707c-20.026-3.782-37.899-9.475-53.691-16.174c-25.44-10.724-45.533-24.086-60.597-36.442
				c-0.034-0.034-0.069-0.034-0.069-0.069c-6.836-5.587-12.632-11.002-17.457-15.86c-5.587-5.345-10.725-11.176-15.342-17.458
				c-1.422-1.873-3.358-3.157-3.706-3.644c-0.103-0.173-1.242-0.278-1.242-0.278v-0.034c-13.157-19.575-20.692-43.418-22.809-70.592
				l-5.971-77.813c-1.179-15.479,0.272-30.922,2.465-46.02v-0.036c17.543-81.802,85.252-153.782,170.665-169.747l606.636-113.073
				c17.77-3.298,34.762-2.5,50.101,1.805c0.069,0,0.168,0.034,0.237,0.07c10.273,2.845,19.918,7.356,28.664,13.223
				c13.744,9.231,25.35,21.898,34.096,37.204c11.349,19.922,17.881,44.389,17.951,71.668L1973.023,2871.028z"/>
			
				<linearGradient id="SVGID_00000108289250885773259750000002686990697064969868_" gradientUnits="userSpaceOnUse" x1="1096.2432" y1="2940.7502" x2="1081.3021" y2="3511.5115">
				<stop  offset="0" style="stop-color:#444B8C"/>
				<stop  offset="0.9964" style="stop-color:#26264F"/>
			</linearGradient>
			<path style="opacity:0.2;fill:url(#SVGID_00000108289250885773259750000002686990697064969868_);" d="M1259.775,3253.005
				c-5.796-0.729-11.419-1.63-16.867-2.707c-20.026-3.782-37.899-9.475-53.691-16.174c-25.44-10.724-45.533-24.086-60.597-36.442
				c-0.034-0.034-0.069-0.034-0.069-0.069c-14.959-11.349-28.903-23.842-36.504-36.962c-0.103-0.173-1.242-0.278-1.242-0.278v-0.034
				l-145.253-148.782c0,0-58.694-176.107,27.132-244.085h0.036c7.634-6.579,30.958,21.306,35.054,25.783
				c17.041,18.811,28.007,40.518,29.222,66.061c1.249,26.689-8.017,55.398,3.713,80.804c5.414,11.73,14.474,19.387,24.781,25.842
				c0.034,0,0.034-0.006,0.069-0.006c14.647,9.197,31.722,15.77,44.181,27.536c28.39,26.828,129.211,186.155,147.329,246.577
				C1258.559,3245.137,1259.497,3249.465,1259.775,3253.005z"/>
			
				<linearGradient id="SVGID_00000047754910431747394280000013161277232303881142_" gradientUnits="userSpaceOnUse" x1="1870.0779" y1="2123.6301" x2="1495.2506" y2="3258.5244">
				<stop  offset="0" style="stop-color:#444B8C"/>
				<stop  offset="0.9964" style="stop-color:#26264F"/>
			</linearGradient>
			<path style="fill:url(#SVGID_00000047754910431747394280000013161277232303881142_);" d="M2045.728,2841.736
				c-0.229-81.453-57.7-137.591-130.77-123.967l-606.391,113.063c-101.211,18.871-180.299,116.5-172.622,215.817l6.014,77.808
				c7.458,96.494,95.316,150.711,192.505,123.549l585.337-163.586c70.886-19.811,126.331-99.118,126.107-178.694L2045.728,2841.736z
				"/>
			
				<linearGradient id="SVGID_00000062901613154415294440000013509803618295339962_" gradientUnits="userSpaceOnUse" x1="1600.0457" y1="2911.3896" x2="1584.3092" y2="3512.5422">
				<stop  offset="0" style="stop-color:#AA80F9"/>
				<stop  offset="0.9964" style="stop-color:#6165D7"/>
			</linearGradient>
			<path style="fill:url(#SVGID_00000062901613154415294440000013509803618295339962_);" d="M2031.224,2902.403
				c0.695,52.788-28.839,106.271-72.258,136.917c-13.257,9.336-27.799,16.555-43.174,20.963l-556.028,159.927
				c-94.68,27.209-180.645-18.88-187.761-105.334l-5.692-69.585c-5.101-62.438,31.861-124.839,88.501-162.669
				c23.705-15.86,50.914-27.417,79.894-32.867l573.834-107.867c67.503-12.701,120.985,34.915,121.923,105.195L2031.224,2902.403z"/>
			<g style="opacity:0.5;">
				<path style="fill:#FFFFFF;" d="M1958.966,3039.32c-13.257,9.336-27.799,16.555-43.174,20.963l-556.028,159.927
					c-94.68,27.209-180.645-18.88-187.761-105.334l-5.692-69.585c-5.101-62.438,31.861-124.839,88.501-162.669
					c64.59-10.793,214.486-23.877,280.67,70.939c85.586,122.617,214.797,6.629,333.18,48.589
					C1907.913,3016.066,1937.311,3027.623,1958.966,3039.32z"/>
			</g>
		</g>
	</g>
</g>
</svg>
